<?xml version="1.0" encoding="UTF-8"?>
<svg id="Layer_2" data-name="Layer 2" xmlns="http://www.w3.org/2000/svg" viewBox="0 0 442.84 315.17">
  <defs>
    <style>
      .cls-1 {
        fill: #006cb7;
      }

      .cls-2 {
        fill: #143f90;
      }
    </style>
  </defs>
  <g id="Layer_1-2" data-name="Layer 1">
    <g>
      <g>
        <circle class="cls-2" cx="220.6" cy="20.82" r="20.82"/>
        <g>
          <polygon class="cls-1" points="315.7 36.57 232.58 44.94 232.58 182.33 241.18 190.25 241.18 52.71 315.7 45.2 315.7 36.57"/>
          <polygon class="cls-1" points="315.7 50.71 246.38 57.69 246.38 195.04 251.16 199.44 251.16 62.01 315.7 55.51 315.7 50.71"/>
          <polygon class="cls-1" points="315.7 189.63 264.95 194.74 264.95 74.76 315.7 69.65 315.7 61.02 256.36 66.99 256.36 204.23 315.7 198.26 315.7 189.63"/>
        </g>
        <g>
          <polygon class="cls-1" points="125.5 36.57 208.62 44.94 208.62 182.33 200.03 190.25 200.03 52.71 125.5 45.2 125.5 36.57"/>
          <polygon class="cls-1" points="125.5 50.71 194.82 57.69 194.82 195.04 190.05 199.44 190.05 62.01 125.5 55.51 125.5 50.71"/>
          <polygon class="cls-1" points="125.5 189.63 176.25 194.74 176.25 74.76 125.5 69.65 125.5 61.02 184.84 66.99 184.84 204.23 125.5 198.26 125.5 189.63"/>
        </g>
      </g>
    </g>
  </g>
</svg>