<svg width="48" height="48" viewBox="0 0 48 48" fill="none" xmlns="http://www.w3.org/2000/svg">
<path opacity="0.4" fill-rule="evenodd" clip-rule="evenodd" d="M42.7176 27.0432C43.6576 28.3232 44.0976 30.1834 43.7376 31.9232C43.4176 33.4434 41.9776 36.9032 35.6776 37.7232V39.8032C35.6776 40.7034 34.9376 41.4632 34.0176 41.4632H30.6376C30.0376 41.4632 29.3376 40.9832 29.1176 40.4232L27.1776 35.8432C25.7776 35.9232 24.1576 35.4232 22.9976 34.2432C21.3176 35.1432 19.2376 35.3032 17.3976 34.5632C16.9176 34.3632 16.4576 34.1232 16.0776 33.8032C15.8776 33.6632 15.6776 33.5032 15.5376 33.3232C15.4976 33.3032 15.4776 33.3032 15.4976 33.2832C15.1576 32.9632 14.8776 32.6032 14.6576 32.2032C14.5176 31.9832 14.3976 31.7432 14.2976 31.5032C14.2376 31.5234 14.1776 31.5432 14.1176 31.5432C13.4176 31.7432 12.6576 31.8432 11.8976 31.8432C10.3576 31.8432 8.77757 31.4634 7.47757 30.6834C7.19757 30.5234 6.93757 30.3232 6.69757 30.1432C5.17757 28.9432 4.11757 27.2832 3.69757 25.3632C3.17757 22.9432 3.69757 20.4032 5.15757 18.2033C5.19757 18.1433 5.25757 18.1033 5.31757 18.0633C5.29757 15.5033 6.57757 12.8433 8.71757 11.2233C10.1176 10.1633 11.7576 9.6633 13.4776 9.6433C16.0376 8.1233 21.1776 5.1833 27.7576 7.2433C28.7976 6.8033 29.9176 6.6233 31.0576 6.7233C33.6176 6.9433 35.8976 8.5233 36.8976 10.7433C36.9776 10.9433 36.9976 11.1433 37.0776 11.3433C39.2176 12.1833 40.8976 13.9233 41.8776 16.5233C43.6376 18.3633 44.5376 20.4032 44.4976 22.4232C44.4776 24.0432 43.8776 25.5832 42.7176 27.0432Z" fill="white"/>
<path fill-rule="evenodd" clip-rule="evenodd" d="M22.7278 21.1642C23.1158 21.1642 23.5198 21.1162 23.9358 21.0122C24.7398 20.8082 25.2258 19.9941 25.0238 19.1901C24.8218 18.3841 23.9938 17.9021 23.2018 18.1021C22.3278 18.3341 21.7078 17.8721 21.3278 17.4301C21.9478 16.5321 22.2858 15.3901 22.2858 14.0781C22.2858 13.2501 21.6138 12.5781 20.7858 12.5781C19.9578 12.5781 19.2858 13.2501 19.2858 14.0781C19.2858 15.2881 18.8738 16.0381 18.0238 16.3621C17.1018 16.7161 16.0938 16.4221 15.8778 16.1981C15.4398 15.5081 14.5298 15.2861 13.8278 15.7181C13.1198 16.1501 12.8958 17.0721 13.3298 17.7801C13.9978 18.8741 15.4918 19.5281 17.0858 19.5281C17.5998 19.5281 18.1258 19.4581 18.6358 19.3161C18.7278 19.2901 18.8098 19.2501 18.8978 19.2201C19.7798 20.3242 21.1178 21.1642 22.7278 21.1642Z" fill="white"/>
<path fill-rule="evenodd" clip-rule="evenodd" d="M38.7453 20.5396C38.5693 19.7317 37.7733 19.2297 36.9593 19.3917L34.3713 19.9517C33.5633 20.1276 33.0493 20.9256 33.2233 21.7376C33.3753 22.4376 33.9993 22.9176 34.6893 22.9176C34.7933 22.9176 34.9013 22.9076 35.0093 22.8856L37.5973 22.3256C38.4053 22.1496 38.9193 21.3496 38.7453 20.5396Z" fill="white"/>
<path fill-rule="evenodd" clip-rule="evenodd" d="M31.4514 24.06C32.4394 20.882 31.2274 18.3459 29.7254 17.0439C29.1014 16.5059 28.1534 16.5699 27.6074 17.1959C27.0674 17.8219 27.1354 18.7699 27.7614 19.3139C28.1674 19.6619 29.2894 20.882 28.6054 23.116C26.0314 22.808 23.4474 23.748 22.3074 25.532C21.8594 26.23 22.0654 27.156 22.7634 27.602C23.4674 28.05 24.3894 27.842 24.8354 27.148C25.3554 26.328 27.1714 25.752 28.9434 26.23C30.1894 26.564 31.6954 27.49 31.8054 30.002C31.8394 30.808 32.5034 31.438 33.3014 31.438C33.3254 31.438 33.3474 31.438 33.3674 31.436C34.1954 31.402 34.8374 30.702 34.8014 29.874C34.6894 27.276 33.4614 25.216 31.4514 24.06Z" fill="white"/>
<path fill-rule="evenodd" clip-rule="evenodd" d="M16.0772 33.8038C15.8772 33.6638 15.6772 33.5038 15.5372 33.3238C15.5372 33.3038 15.5172 33.3038 15.5172 33.2838H15.4972C15.1572 32.9638 14.8772 32.6038 14.6572 32.2038C14.5172 31.9838 14.3972 31.7438 14.2972 31.5038C14.2372 31.5238 14.1772 31.5438 14.1172 31.5438C15.6972 30.3438 16.4372 28.4038 16.3172 27.1838C16.2372 26.3438 16.8372 25.6238 17.6572 25.5438C18.4772 25.4238 19.2172 26.0638 19.2972 26.8838C19.5572 29.3038 18.2172 32.1038 16.0772 33.8038Z" fill="white"/>
</svg>
