<svg width="48" height="48" viewBox="0 0 48 48" fill="none" xmlns="http://www.w3.org/2000/svg">
<path opacity="0.4" d="M40.1397 23.4916V41.8516H15.5197H13.5197H9.67969V11.3116C9.67969 8.59156 11.9197 6.35156 14.6597 6.35156H23.8797C26.6197 6.35156 28.8397 8.59156 28.8397 11.3116V15.9316C28.8397 16.2629 28.5711 16.5316 28.2397 16.5316H20.4797C16.6397 16.5316 13.5197 19.6716 13.5197 23.4916V41.8516H15.5197V23.4916C15.5197 20.7716 17.7597 18.5316 20.4797 18.5316H35.1997C37.9197 18.5316 40.1397 20.7716 40.1397 23.4916Z" fill="white"/>
<path d="M24.3228 33.6717C25.1396 33.5123 25.6786 32.7377 25.5248 31.9213C25.5234 31.9149 25.5228 31.9083 25.5228 31.9017C25.5228 31.8951 25.5222 31.8883 25.5208 31.8817C25.3566 31.0871 24.5994 30.5523 23.7628 30.7117C22.9628 30.8717 22.4228 31.6717 22.5828 32.4717C22.7228 33.1917 23.3428 33.6917 24.0428 33.6917C24.1428 33.6917 24.2428 33.6917 24.3228 33.6717Z" fill="white"/>
<path d="M24.0428 28.2503C24.1428 28.2503 24.2428 28.2503 24.3228 28.2303C25.1396 28.0709 25.6786 27.2963 25.5248 26.4799C25.5234 26.4735 25.5228 26.4669 25.5228 26.4603C25.5228 26.4537 25.5222 26.4469 25.5208 26.4403C25.3566 25.6457 24.5994 25.1109 23.7628 25.2703C22.9628 25.4303 22.4228 26.2303 22.5828 27.0303C22.7228 27.7503 23.3428 28.2503 24.0428 28.2503Z" fill="white"/>
<path d="M24.3436 38.9908C25.157 38.832 25.675 38.0438 25.5274 37.2504C25.525 37.2374 25.5236 37.224 25.5236 37.2108C25.5236 37.2016 25.5226 37.1936 25.521 37.186C25.5102 37.1356 25.4976 37.0852 25.482 37.0362C25.252 36.3196 24.4978 35.876 23.7436 36.0308C22.9436 36.1908 22.4236 36.9908 22.5836 37.8108C22.6236 37.9708 22.6636 38.1308 22.7436 38.2708C23.0036 38.7308 23.5036 39.0108 24.0436 39.0108C24.1436 39.0108 24.2436 39.0108 24.3436 38.9908Z" fill="white"/>
<path d="M31.5965 28.2504C31.6965 28.2504 31.7765 28.2504 31.8765 28.2304C32.6919 28.0712 33.2105 27.2992 33.0789 26.4844C33.0775 26.4752 33.0731 26.4668 33.0665 26.4602C33.0601 26.4538 33.0557 26.4454 33.0541 26.4364C32.9075 25.644 32.1317 25.1112 31.3165 25.2704C30.4965 25.4304 29.9765 26.2304 30.1165 27.0304C30.2565 27.7504 30.8965 28.2504 31.5965 28.2504Z" fill="white"/>
<path d="M31.9041 38.9928C32.6995 38.8336 33.2379 38.042 33.0869 37.2466C33.0851 37.2376 33.0807 37.2292 33.0741 37.2228C33.0677 37.2162 33.0633 37.2078 33.0613 37.1988C32.8953 36.3868 32.1195 35.8736 31.3041 36.0328C30.5041 36.1928 29.9641 36.9928 30.1441 37.8128C30.2841 38.5328 30.9041 39.0128 31.6041 39.0128C31.7041 39.0128 31.8041 39.0128 31.9041 38.9928Z" fill="white"/>
<path d="M31.5965 33.6918C31.6965 33.6918 31.7765 33.6918 31.8765 33.6718C32.6919 33.5126 33.2105 32.7406 33.0789 31.9258C33.0775 31.9166 33.0731 31.9082 33.0665 31.9016C33.0601 31.8952 33.0557 31.8868 33.0541 31.8778C32.9075 31.0854 32.1317 30.5526 31.3165 30.7118C30.4965 30.8718 29.9765 31.6718 30.1165 32.4718C30.2565 33.1918 30.8965 33.6918 31.5965 33.6918Z" fill="white"/>
<path d="M22.1628 13.8519C22.9828 13.7719 23.5828 13.0319 23.5028 12.2119V12.1919C23.4228 11.3719 22.7228 10.7919 21.8628 10.8519C21.0428 10.9319 20.4428 11.6719 20.5228 12.4919C20.6028 13.2719 21.2428 13.8519 22.0028 13.8519H22.1628Z" fill="white"/>
<path d="M16.522 13.8519C17.342 13.7719 17.962 13.0319 17.882 12.2119V12.1919C17.802 11.3719 17.082 10.7919 16.242 10.8519C15.422 10.9319 14.802 11.6719 14.882 12.4919C14.962 13.2719 15.622 13.8519 16.382 13.8519H16.522Z" fill="white"/>
<path d="M43.4462 43.3516C43.4462 42.5316 42.7862 41.8516 41.9462 41.8516H7.92969C7.10969 41.8516 6.42969 42.5316 6.42969 43.3516C6.42969 44.1916 7.10969 44.8516 7.92969 44.8516H41.9462C42.7862 44.8516 43.4462 44.1916 43.4462 43.3516Z" fill="white"/>
</svg>
