<svg width="48" height="48" viewBox="0 0 48 48" fill="none" xmlns="http://www.w3.org/2000/svg">
<path fill-rule="evenodd" clip-rule="evenodd" d="M34.8468 29.1798C35.2454 28.986 35.7092 29.2762 35.7092 29.7194V34.6206C35.7092 36.7406 34.4692 38.6406 32.5292 39.4606C29.6892 40.6606 26.8092 41.2606 23.9092 41.2606C21.0092 41.2606 18.0892 40.6606 15.1692 39.4606C13.2292 38.6406 11.9492 36.7206 11.9492 34.5806V29.5422C11.9492 29.0984 12.4144 28.8082 12.813 29.0032L19.5092 32.2806C20.8478 33.0836 22.45 33.3406 23.9892 33.3406C25.5292 33.3406 27.0492 32.9806 28.4692 32.2806L34.8468 29.1798Z" fill="white"/>
<path opacity="0.4" d="M40.4698 23.6602C42.3298 22.7402 43.4898 20.8802 43.4898 18.8002C43.4898 16.7202 42.3298 14.8402 40.4498 13.9202L27.3698 7.52023C25.2298 6.48023 22.7698 6.48023 20.6098 7.52023L7.54977 13.9202C5.66977 14.8402 4.50977 16.7002 4.50977 18.7802C4.50977 20.5402 5.32977 22.1402 6.70977 23.1402L9.38977 24.5402L12.1298 25.8802C12.1898 25.9202 12.2298 25.9602 12.2898 25.9802L20.6098 30.0402C21.6592 30.565 22.8126 30.8202 23.9898 30.8202C25.1498 30.8202 26.2898 30.5602 27.3698 30.0402L40.4698 23.6602Z" fill="white"/>
<path fill-rule="evenodd" clip-rule="evenodd" d="M9.38032 24.5662C9.64032 23.9462 10.2203 23.4662 10.9403 23.3462L18.4403 22.1662C19.2603 22.0262 19.8203 21.2662 19.7003 20.4462C19.5603 19.6261 18.7803 19.0661 17.9803 19.1861L10.4803 20.3662C8.78944 20.6446 7.41514 21.7146 6.71164 23.143L6.70898 23.1412C6.38898 23.8212 6.20898 24.5612 6.20898 25.3412V33.5012C6.20898 34.3412 6.88898 35.0012 7.70898 35.0012C8.52898 35.0012 9.20898 34.3412 9.20898 33.5012V25.3412C9.20898 25.0702 9.26516 24.7994 9.37748 24.5646L9.38032 24.5662Z" fill="white"/>
</svg>
