<svg width="369" height="265" viewBox="0 0 369 265" fill="none" xmlns="http://www.w3.org/2000/svg">
<g clip-path="url(#clip0_3046_3381)">
<path d="M367.386 206.96C361.36 203.158 355.466 199.16 349.144 195.817C345.686 193.982 339.1 189.623 335.347 192.9C333.535 194.473 334.194 201.29 337.421 199.684C340.088 198.373 348.749 204.764 350.658 205.911C351.745 206.566 352.799 207.254 353.885 207.943C353.622 207.746 353.293 207.615 352.931 207.582C322.636 204.469 291.518 207.254 261.125 208.041C232.312 208.762 203.137 214.17 174.456 213.514C161.417 213.219 148.509 211.449 135.601 209.68C139.354 207.877 142.911 205.681 146.138 203.256C169.155 185.788 180.482 154.523 192.04 128.993C194.148 124.307 225.727 33.9853 256.021 77.6057C281.87 114.835 263.858 180.676 307.752 205.255C311.638 207.451 312.79 197.849 309.234 195.85C280.52 179.627 283.187 138.071 275.976 109.887C271.629 92.845 264.912 67.2168 247.624 58.3026C227.801 48.0447 212.39 71.3461 204.422 86.0283C202.314 89.9282 200.339 93.8937 198.396 97.892C174.061 80.3914 136.358 74.5578 112.155 56.5656C110.904 42.8667 109.85 27.7585 110.147 27.1685C112.978 35.1651 116.699 42.8011 123.219 48.4708C125.985 50.8632 127.401 44.6692 125.887 42.8994C119.465 35.4273 115.712 27.0702 113.275 17.5989C112.485 14.5183 109.488 13.3385 108.039 16.6813C105.537 22.4493 101.849 27.8568 98.6873 33.2643C96.2177 37.4919 92.0357 43.0961 92.2333 48.2086C92.2992 49.8145 93.9456 53.3211 95.9542 51.2892C99.4447 47.8153 103.297 37.1314 105.833 32.8382C107.018 57.0245 117.226 166.158 115.086 205.223C99.6423 203.879 93.5504 191.589 88.8087 178.644C81.5314 158.718 75.3408 138.563 66.9111 119.03C59.535 101.956 35.2994 43.6204 8.79175 67.7084C7.2441 69.1176 8.00146 75.2461 10.6028 73.6402C43.5975 52.8623 70.0393 144.56 77.119 164.978C81.729 178.251 85.1536 195.522 95.625 205.845C94.8018 205.845 93.9785 205.747 93.1553 205.747C62.4328 205.518 31.7102 208.5 0.987632 209.286C-0.461235 209.319 -0.395377 212.498 1.05349 212.531C30.393 212.891 59.7655 211.417 89.1051 212.433C97.7653 212.728 106.36 213.58 114.954 214.596C114.855 228.655 114.888 242.747 115.448 256.774C115.679 262.182 121.013 261.952 121.211 256.643C121.738 243.009 122.034 229.245 122.199 215.48C139.651 217.742 157.004 220.462 174.555 220.888C201.886 221.543 229.448 216.529 256.877 216.234C288.818 215.874 321.154 215.972 353.029 214.17C355.631 214.038 355.762 209.352 353.82 207.975C355.762 209.188 357.705 210.401 359.615 211.646C353.062 217.283 345.423 221.576 339.594 228.065C337.52 230.392 339.133 238.225 342.492 235.079C350.395 227.737 360.307 222.789 367.485 214.661C369.066 212.891 369.724 208.5 367.287 206.96H367.386ZM112.847 63.7756C135.831 81.604 170.505 90.2232 195.202 104.578C193.819 107.593 192.501 110.641 191.151 113.656C165.763 104.184 136.358 87.5358 114.427 72.0016C114.164 71.8377 113.966 71.805 113.769 71.8377C113.472 69.5436 113.176 66.7579 112.847 63.7756ZM116.37 92.2879C115.679 86.6837 114.954 81.0796 114.23 75.4755C134.185 91.2719 161.878 114.934 187.957 120.898C184.862 127.977 181.767 135.089 178.54 142.102C168.99 133.483 159.243 124.536 149.134 116.638C138.334 108.183 125.458 103.103 116.502 92.3862C116.469 92.3534 116.436 92.3207 116.37 92.2879ZM119.861 123.684C119.136 115.524 118.247 107.396 117.259 99.2685C125.426 108.183 135.996 113.918 145.578 121.357C155.819 129.321 164.413 141.316 176.202 147.117C173.699 152.393 171.098 157.637 168.299 162.749C168.299 162.749 168.299 162.716 168.266 162.684C157.86 155.343 148.179 148.001 138.795 139.382C132.67 133.778 126.611 128.305 119.861 123.619V123.684ZM121.309 144.691C121.112 140.038 120.815 135.351 120.486 130.697C135.107 143.544 148.113 160.619 165.862 167.173C163.491 171.237 160.989 175.236 158.288 179.136C158.223 178.808 158.124 178.513 157.959 178.283C148.443 166.649 133.592 161.635 121.573 152.917C121.474 150.164 121.408 147.412 121.309 144.659V144.691ZM122.231 181.069C122.133 173.63 121.968 166.19 121.77 158.751C132.67 167.141 145.611 173.466 156.346 181.659C156.346 181.659 156.346 181.659 156.379 181.659C153.283 185.723 149.628 189.721 145.545 193.293C137.412 189.459 129.41 186.149 122.231 181.036V181.069ZM122.297 187.46C127.632 191.622 133.625 195.227 139.782 197.75C134.448 201.355 128.587 204.043 122.396 204.96C122.396 199.127 122.33 193.293 122.297 187.46Z" fill="#E3EEFF"/>
<path d="M97.4693 240.683C95.3618 234.423 89.1054 229.442 83.0135 234.554C81.2024 236.062 81.7952 241.731 84.8905 240.748C88.7102 239.536 91.608 239.667 93.0897 243.862C94.4069 247.565 93.6825 252.35 90.8177 255.168C87.0308 258.871 78.3047 258.806 75.2423 254.185C71.4555 248.483 77.6132 239.699 81.9269 236.16C83.1452 235.177 82.2891 231.605 80.5439 232.85C73.3325 238.028 67.6358 248.45 71.0933 257.298C74.3203 265.623 86.7674 267.392 93.1556 261.657C98.7535 256.643 99.7414 247.467 97.4693 240.683Z" fill="#E3EEFF"/>
<path d="M249.633 28.7416C250.028 26.9064 249.304 24.5467 247.624 24.4484C247.163 23.4652 246.67 22.4821 246.209 21.5317C242.422 13.5679 237.845 6.09572 230.897 0.491586C229.843 -0.360504 228.361 -4.77768e-06 227.736 1.17981C224.278 7.83267 221.677 14.9443 219.24 22.0232C218.614 23.8913 214.399 45.8818 213.774 48.1759C213.774 51.5514 218.153 50.2405 218.845 49.3884C219.306 48.7985 223.257 33.6248 223.652 33.0021C231.522 30.7736 235.902 30.8719 244.101 30.8391C246.505 36.7382 248.25 44.1448 252.333 48.7658C253.815 50.4372 255.462 48.6019 255.297 46.7994C254.77 40.8348 252.3 34.608 249.633 28.7744V28.7416ZM230.337 9.30744C234.815 13.6334 238.207 18.9098 241.072 24.4484C235.177 24.5795 229.316 25.1039 223.652 26.4476C226.056 20.909 227.867 14.7149 230.337 9.34021V9.30744Z" fill="#E3EEFF"/>
</g>
<defs>
<clipPath id="clip0_3046_3381">
<rect width="369" height="265" fill="white"/>
</clipPath>
</defs>
</svg>
