<svg width="40" height="40" viewBox="0 0 40 40" fill="none" xmlns="http://www.w3.org/2000/svg">
<path opacity="0.4" fill-rule="evenodd" clip-rule="evenodd" d="M18.213 21.7869C18.2389 21.9038 18.2683 22.0352 18.3012 22.18C18.4476 22.8257 18.662 23.7377 18.9344 24.8056C19.478 26.9364 20.2576 29.7089 21.195 32.2304C21.6636 33.491 22.1779 34.7057 22.7297 35.7538C23.2744 36.7884 23.888 37.7235 24.5762 38.3723C25.2627 39.0196 26.1828 39.5195 27.2469 39.2663C28.2485 39.028 29.0352 38.1929 29.6804 37.0751C31.7771 33.4428 34.5607 25.5259 36.5867 18.1677C37.6042 14.4719 38.4433 10.8718 38.9147 7.96872C39.15 6.51943 39.2978 5.21977 39.3256 4.15736C39.3486 3.28103 39.3446 2.28537 38.9215 1.4909C38.8281 1.31543 38.6844 1.1718 38.509 1.07835C37.7145 0.655223 36.7188 0.651301 35.8425 0.674237C34.7801 0.702043 33.4804 0.849819 32.0311 1.08517C29.1281 1.5566 25.5279 2.39562 21.8322 3.41317C14.4739 5.43914 6.55705 8.22276 2.92477 10.3194C1.80697 10.9647 0.971857 11.7514 0.733552 12.753C0.480381 13.8171 0.980298 14.7372 1.62754 15.4237C2.27637 16.1119 3.21146 16.7254 4.24609 17.2702C5.29412 17.822 6.5089 18.3362 7.76946 18.8049C10.2909 19.7423 13.0635 20.5219 15.1943 21.0654C16.2622 21.3378 17.1741 21.5522 17.8199 21.6987C17.9647 21.7315 18.0961 21.761 18.213 21.7869Z" fill="white"/>
<path fill-rule="evenodd" clip-rule="evenodd" d="M33.6247 7.2057C34.2105 7.79148 34.2105 8.74123 33.6247 9.32702L22.5611 20.3906C21.9754 20.9764 21.0256 20.9764 20.4398 20.3906C19.854 19.8048 19.854 18.8551 20.4398 18.2693L31.5034 7.2057C32.0892 6.61991 33.0389 6.61991 33.6247 7.2057Z" fill="white"/>
</svg>
