<svg xmlns="http://www.w3.org/2000/svg" width="82" height="82" viewBox="0 0 82 82" fill="none">
    <path
        d="M25.0934 34.9633C25.0934 35.8603 25.1904 36.5875 25.3601 37.1209C25.554 37.6542 25.7964 38.236 26.1358 38.8663C26.257 39.0602 26.3055 39.2541 26.3055 39.4238C26.3055 39.6662 26.16 39.9087 25.8449 40.1511L24.3176 41.1692C24.0995 41.3147 23.8813 41.3874 23.6874 41.3874C23.4449 41.3874 23.2025 41.2662 22.9601 41.048C22.6207 40.6844 22.3298 40.2965 22.0874 39.9087C21.845 39.4966 21.6026 39.036 21.3359 38.4784C19.445 40.7086 17.0693 41.8238 14.2088 41.8238C12.1724 41.8238 10.5482 41.242 9.36037 40.0784C8.17251 38.9147 7.56647 37.3633 7.56647 35.4239C7.56647 33.3634 8.29372 31.6907 9.77248 30.4301C11.2512 29.1695 13.2148 28.5392 15.7118 28.5392C16.536 28.5392 17.3845 28.612 18.2814 28.7332C19.1784 28.8544 20.0996 29.0483 21.0692 29.2665V27.4969C21.0692 25.6545 20.6814 24.3697 19.9299 23.6182C19.1541 22.8667 17.845 22.503 15.9784 22.503C15.13 22.503 14.2572 22.6 13.3603 22.8182C12.4633 23.0364 11.5906 23.303 10.7422 23.6424C10.3543 23.8121 10.0634 23.9091 9.89369 23.9575C9.724 24.006 9.60279 24.0303 9.50582 24.0303C9.16643 24.0303 8.99674 23.7879 8.99674 23.2788V22.0909C8.99674 21.7031 9.04522 21.4122 9.16643 21.2425C9.28764 21.0728 9.50582 20.9031 9.84521 20.7334C10.6937 20.297 11.7118 19.9334 12.8997 19.6425C14.0875 19.3274 15.3481 19.1819 16.6814 19.1819C19.5662 19.1819 21.6753 19.8364 23.0328 21.1455C24.3661 22.4546 25.0449 24.4424 25.0449 27.109V34.9633H25.0934ZM15.2512 38.6481C16.0511 38.6481 16.8754 38.5026 17.7481 38.2117C18.6208 37.9208 19.3965 37.3875 20.0511 36.6603C20.4389 36.1997 20.7298 35.6906 20.8753 35.1088C21.0207 34.527 21.1177 33.824 21.1177 32.9997V31.9816C20.4147 31.8119 19.6632 31.6664 18.8875 31.5695C18.1117 31.4725 17.3602 31.424 16.6087 31.424C14.9845 31.424 13.7966 31.7392 12.9967 32.3937C12.1967 33.0482 11.8088 33.9694 11.8088 35.1815C11.8088 36.3209 12.0997 37.1693 12.7058 37.7511C13.2876 38.3572 14.136 38.6481 15.2512 38.6481ZM34.7174 41.2662C34.2811 41.2662 33.9902 41.1935 33.7962 41.0238C33.6023 40.8783 33.4326 40.5389 33.2872 40.0784L27.5903 21.3394C27.4449 20.8546 27.3721 20.5394 27.3721 20.3698C27.3721 19.9819 27.5661 19.7637 27.9539 19.7637H30.3297C30.7902 19.7637 31.1054 19.8364 31.2751 20.0061C31.469 20.1516 31.6145 20.491 31.7599 20.9516L35.8326 36.9996L39.6143 20.9516C39.7355 20.4667 39.881 20.1516 40.0749 20.0061C40.2688 19.8607 40.6082 19.7637 41.0446 19.7637H42.9839C43.4445 19.7637 43.7597 19.8364 43.9536 20.0061C44.1476 20.1516 44.3172 20.491 44.4142 20.9516L48.2444 37.1936L52.4383 20.9516C52.5838 20.4667 52.7534 20.1516 52.9231 20.0061C53.1171 19.8607 53.4322 19.7637 53.8686 19.7637H56.1231C56.5109 19.7637 56.7291 19.9576 56.7291 20.3698C56.7291 20.491 56.7049 20.6122 56.6806 20.7576C56.6564 20.9031 56.6079 21.097 56.5109 21.3637L50.6686 40.1026C50.5232 40.5874 50.3535 40.9026 50.1596 41.048C49.9656 41.1935 49.6505 41.2904 49.2384 41.2904H47.1536C46.693 41.2904 46.3778 41.2177 46.1839 41.048C45.9899 40.8783 45.8202 40.5632 45.7233 40.0784L41.9658 24.4424L38.2325 40.0541C38.1113 40.5389 37.9659 40.8541 37.7719 41.0238C37.578 41.1935 37.2386 41.2662 36.8022 41.2662H34.7174ZM65.8683 41.9207C64.6078 41.9207 63.3472 41.7753 62.1351 41.4844C60.923 41.1935 59.9775 40.8783 59.3473 40.5147C58.9594 40.2965 58.6927 40.0541 58.5958 39.8359C58.4988 39.6178 58.4503 39.3753 58.4503 39.1572V37.9208C58.4503 37.4118 58.6442 37.1693 59.0079 37.1693C59.1533 37.1693 59.2988 37.1936 59.4442 37.2421C59.5897 37.2905 59.8078 37.3875 60.0503 37.4845C60.8745 37.8481 61.7715 38.139 62.7169 38.3329C63.6866 38.5269 64.632 38.6238 65.6017 38.6238C67.1289 38.6238 68.3168 38.3572 69.141 37.8239C69.9652 37.2905 70.4016 36.5148 70.4016 35.5209C70.4016 34.8421 70.1834 34.2846 69.747 33.824C69.3107 33.3634 68.4865 32.9513 67.2986 32.5634L63.7835 31.4725C62.0139 30.9149 60.7048 30.0907 59.9048 28.9998C59.1048 27.9332 58.6927 26.7454 58.6927 25.4848C58.6927 24.4666 58.9109 23.5697 59.3473 22.7939C59.7836 22.0182 60.3654 21.3394 61.0927 20.8061C61.8199 20.2485 62.6442 19.8364 63.6138 19.5455C64.5835 19.2546 65.6017 19.1334 66.6683 19.1334C67.2016 19.1334 67.7592 19.1577 68.2925 19.2304C68.8501 19.3031 69.3592 19.4001 69.8683 19.4971C70.3531 19.6183 70.8137 19.7395 71.25 19.8849C71.6864 20.0304 72.0258 20.1758 72.2682 20.3213C72.6076 20.5152 72.85 20.7091 72.9955 20.9273C73.1409 21.1213 73.2136 21.3879 73.2136 21.7273V22.8667C73.2136 23.3757 73.0197 23.6424 72.6561 23.6424C72.4622 23.6424 72.147 23.5454 71.7349 23.3515C70.3531 22.7212 68.8016 22.4061 67.0804 22.4061C65.6986 22.4061 64.6078 22.6242 63.8563 23.0848C63.1048 23.5454 62.7169 24.2484 62.7169 25.2424C62.7169 25.9211 62.9593 26.5029 63.4441 26.9635C63.929 27.4241 64.8259 27.8847 66.1108 28.2968L69.5531 29.3877C71.2985 29.9453 72.5591 30.721 73.3106 31.7149C74.0621 32.7088 74.4257 33.8482 74.4257 35.1088C74.4257 36.1512 74.2076 37.0966 73.7954 37.9208C73.3591 38.7451 72.7773 39.4723 72.0258 40.0541C71.2743 40.6602 70.3773 41.0965 69.3349 41.4117C68.244 41.751 67.1047 41.9207 65.8683 41.9207Z"
        fill="#221F1F" />
    <path fill-rule="evenodd" clip-rule="evenodd"
        d="M70.4529 53.7023C62.4773 59.593 50.8897 62.7202 40.9262 62.7202C26.9629 62.7202 14.3813 57.5567 4.87845 48.9751C4.12695 48.2963 4.80572 47.3751 5.70267 47.9085C15.9813 53.872 28.6598 57.484 41.7747 57.484C50.623 57.484 60.344 55.6416 69.2893 51.8599C70.6226 51.2538 71.762 52.7326 70.4529 53.7023Z"
        fill="#FF9900" />
    <path fill-rule="evenodd" clip-rule="evenodd"
        d="M73.7745 49.9204C72.7563 48.6114 67.0352 49.2901 64.4413 49.6053C63.6656 49.7022 63.5444 49.0235 64.2474 48.5144C68.8049 45.3145 76.2956 46.2357 77.1683 47.3023C78.041 48.3932 76.9259 55.8839 72.6593 59.4717C72.0048 60.0293 71.3745 59.7384 71.6654 59.0111C72.6351 56.6112 74.7926 51.2052 73.7745 49.9204Z"
        fill="#FF9900" />
</svg>