<svg xmlns="http://www.w3.org/2000/svg" width="88" height="88" viewBox="0 0 88 88" fill="none">
    <path
        d="M36.2043 46.8756C36.4608 42.2984 38.7018 38.2658 42.0825 35.4072C45.3979 32.5994 49.8604 30.8832 54.7295 30.8832C59.5937 30.8832 64.0562 32.5994 67.374 35.4072C70.7523 38.2658 72.9932 42.2984 73.2522 46.8708C73.5087 51.5738 71.6187 55.9429 68.3033 59.1815C64.9225 62.4759 60.114 64.5431 54.7295 64.5431C49.3449 64.5431 44.5267 62.4759 41.1484 59.1815C37.8305 55.9429 35.9454 51.5739 36.2043 46.8756Z"
        fill="white" />
    <path
        d="M45.2247 47.287C45.3563 44.9384 46.5061 42.8693 48.2408 41.4025C49.942 39.9618 52.2317 39.0812 54.73 39.0812C57.2259 39.0812 59.5156 39.9618 61.218 41.4025C62.9515 42.8693 64.1013 44.9384 64.2341 47.2845C64.3658 49.6977 63.396 51.9395 61.6949 53.6013C59.9602 55.2916 57.4929 56.3523 54.73 56.3523C51.9672 56.3523 49.4949 55.2916 47.7615 53.6013C46.0591 51.9395 45.0918 49.6977 45.2247 47.287Z"
        fill="#265787" />
    <path
        d="M30.088 52.0321C30.1041 52.9512 30.3971 54.7372 30.8367 56.132C31.7605 59.0842 33.3276 61.8153 35.5081 64.2222C37.7456 66.6963 40.501 68.6834 43.6836 70.0943C47.0288 71.576 50.6533 72.3312 54.4182 72.325C58.1769 72.32 61.8015 71.5499 65.1467 70.0571C68.3292 68.6325 71.0821 66.6367 73.316 64.1614C75.4952 61.7445 77.0598 59.0084 77.9861 56.0562C78.4517 54.5646 78.746 53.0506 78.864 51.5316C78.9795 50.035 78.931 48.5359 78.7187 47.0381C78.304 44.1194 77.2944 41.3809 75.7398 38.8845C74.318 36.5905 72.4853 34.5823 70.306 32.8919L70.311 32.8882L48.3189 15.9984C48.299 15.9835 48.2829 15.9674 48.2618 15.9537C46.8189 14.8459 44.3926 14.8496 42.8057 15.9599C41.2014 17.0827 41.0176 18.9394 42.4455 20.1106L42.4393 20.1168L51.6119 27.5774L23.6546 27.6073H23.6174C21.3065 27.6097 19.0851 29.1262 18.6455 31.0426C18.1935 32.995 19.763 34.6145 22.1658 34.6232L22.1621 34.6319L36.3326 34.6046L11.0462 54.0181C11.0139 54.0417 10.9791 54.0665 10.9493 54.0901C8.56396 55.9171 7.79287 58.955 9.29536 60.8776C10.8202 62.8325 14.0623 62.8362 16.4725 60.8887L30.273 49.5916C30.273 49.5916 30.0718 51.1168 30.088 52.0321ZM65.5502 57.1392C62.7067 60.0367 58.7257 61.6799 54.4182 61.6886C50.1045 61.6961 46.1235 60.0678 43.28 57.1752C41.8905 55.7656 40.8698 54.1435 40.2403 52.4159C39.6231 50.7181 39.3835 48.916 39.5424 47.0977C39.6927 45.3205 40.2216 43.6251 41.066 42.0913C41.8955 40.5835 43.0379 39.2211 44.4485 38.0685C47.2125 35.8156 50.7316 34.5959 54.412 34.5909C58.0962 34.586 61.6127 35.7944 64.3793 38.0399C65.7874 39.1875 66.9286 40.545 67.758 42.0503C68.6061 43.5829 69.1314 45.272 69.2878 47.0543C69.4443 48.87 69.2046 50.6697 68.5875 52.3687C67.9567 54.1013 66.9397 55.7233 65.5502 57.1392Z"
        fill="#EA7600" />
</svg>