<svg xmlns="http://www.w3.org/2000/svg" width="194" height="208" viewBox="0 0 194 208" fill="none">
    <g clip-path="url(#clip0_3046_2743)">
        <path
            d="M97.0486 42.4093C108.783 42.4093 118.297 32.9157 118.297 21.2047C118.297 9.49366 108.783 0 97.0486 0C85.3136 0 75.8006 9.49366 75.8006 21.2047C75.8006 32.9157 85.3136 42.4093 97.0486 42.4093Z"
            fill="white" />
        <path
            d="M194.097 37.2432L109.281 45.7682V185.689L118.053 193.756V53.6862L194.097 46.038V37.2432Z"
            fill="white" />
        <path
            d="M194.097 51.6494L123.352 58.7581V198.639L128.231 203.117V63.1555L194.097 56.5324V51.6494Z"
            fill="white" />
        <path
            d="M194.097 193.122L142.315 198.328V76.1319L194.097 70.9386V62.1438L133.543 68.2273V208L194.097 201.917V193.122Z"
            fill="white" />
        <path d="M0 37.2432L84.8161 45.7682V185.689L76.0574 193.756V53.6862L0 46.038V37.2432Z"
            fill="white" />
        <path d="M0 51.6494L70.7454 58.7581V198.639L65.866 203.117V63.1555L0 56.5324V51.6494Z"
            fill="white" />
        <path
            d="M0 193.122L51.7953 198.328V76.1319L0 70.9386V62.1438L60.554 68.2273V208L0 201.917V193.122Z"
            fill="white" />
    </g>
    <defs>
        <clipPath id="clip0_3046_2743">
            <rect width="194" height="208" fill="white" />
        </clipPath>
    </defs>
</svg>