<svg xmlns="http://www.w3.org/2000/svg" width="150" height="44" viewBox="0 0 150 44" fill="none">
    <g clip-path="url(#clip0_3046_2846)">
        <path
            d="M48.6138 12.5037H49.537C49.7856 12.5037 50.0029 12.538 50.1944 12.6093C50.3858 12.6806 50.5259 12.8205 50.6174 13.0316L51.8435 15.5797H55.499L56.245 13.862H59.9949L60.7408 15.5797H62.5071L58.8402 7.66431H57.3882L53.7613 15.5455L52.598 13.2C52.4408 12.8775 52.2351 12.6321 51.9778 12.4581C51.8692 12.3867 51.7549 12.3325 51.6377 12.2897C51.7549 12.2526 51.8692 12.2098 51.9778 12.1613C52.3894 11.9701 52.7038 11.6962 52.9239 11.3424C53.1411 10.9857 53.2497 10.5605 53.2497 10.0669C53.2497 9.31074 53.0067 8.72008 52.5237 8.29777C52.0407 7.87546 51.3519 7.66431 50.4602 7.66431H46.8618V15.5797H48.6167V12.5037H48.6138ZM58.0971 9.49621H58.1428L59.4347 12.5066H56.8338L58.0971 9.49621ZM48.6138 9.02254H50.1543C50.6116 9.02254 50.9603 9.111 51.2004 9.29077C51.4405 9.47053 51.5605 9.74446 51.5605 10.1097C51.5605 10.4749 51.4405 10.7546 51.2004 10.9401C50.9603 11.1284 50.6116 11.2197 50.1543 11.2197H48.6138V9.01969V9.02254Z"
            fill="white" />
        <path
            d="M64.5936 15.1888C65.1738 15.5255 65.8654 15.6938 66.6686 15.6938C66.7229 15.6938 66.7743 15.6881 66.8258 15.6853C66.9687 15.9506 67.1373 16.2103 67.3374 16.47C67.5517 16.7468 67.7832 16.995 68.0348 17.2176C68.2863 17.4373 68.5378 17.6171 68.795 17.7512L69.964 16.8637C69.6039 16.6554 69.258 16.3901 68.9236 16.0733C68.6978 15.8565 68.5092 15.6254 68.3549 15.3828C68.4921 15.3257 68.6235 15.2658 68.7493 15.1916C69.3352 14.8549 69.7868 14.3784 70.104 13.7649C70.4241 13.1514 70.5813 12.4324 70.5813 11.6077C70.5813 10.7831 70.4213 10.0783 70.0983 9.46764C69.7754 8.857 69.3238 8.38618 68.7436 8.05233C68.1634 7.71848 67.4717 7.55298 66.6686 7.55298C65.8654 7.55298 65.1652 7.71848 64.5879 8.05233C64.0105 8.38618 63.5647 8.857 63.2503 9.46764C62.9359 10.0783 62.7787 10.7945 62.7787 11.6191C62.7787 12.4438 62.9359 13.1514 63.2503 13.7649C63.5647 14.3784 64.0134 14.8549 64.5936 15.1916V15.1888ZM65.128 9.70162C65.4739 9.24792 65.9855 9.0225 66.6686 9.0225C67.3517 9.0225 67.8661 9.24792 68.2148 9.70162C68.5635 10.1553 68.7379 10.7916 68.7379 11.6163C68.7379 12.4409 68.5606 13.0715 68.2091 13.5309C67.8576 13.9903 67.3431 14.2215 66.6686 14.2215C65.9941 14.2215 65.4739 13.9903 65.128 13.5309C64.7822 13.0715 64.6107 12.4324 64.6107 11.6163C64.6107 10.8002 64.7822 10.1553 65.128 9.70162Z"
            fill="white" />
        <path
            d="M73.3423 13.862H77.0922L77.8381 15.5797H79.6044L75.9375 7.66431H74.4855L70.8414 15.5797H72.5963L73.3423 13.862ZM75.1944 9.49621H75.2401L76.532 12.5066H73.9311L75.1944 9.49621Z"
            fill="white" />
        <path
            d="M81.9081 11.2425L83.9002 15.5826H84.912L86.9355 11.1883V15.5826H88.5218V7.66431H86.9927L84.4261 13.4482L81.8509 7.66431H80.3218V15.5826H81.9081V11.2425Z"
            fill="white" />
        <path d="M95.4842 14.1102H91.9172V7.66431H90.1652V15.5826H95.4842V14.1102Z" fill="white" />
        <path d="M98.3194 7.66431H96.5645V15.5797H98.3194V7.66431Z" fill="white" />
        <path d="M104.933 15.5826H106.697V9.09103H109.217V7.66431H102.424V9.09103H104.933V15.5826Z"
            fill="white" />
        <path
            d="M110.106 15.5827L110.852 13.8649H114.602L115.348 15.5827H117.114L113.447 7.66724H111.996L108.351 15.5827H110.106ZM112.704 9.49629H112.75L114.042 12.5067H111.441L112.704 9.49629Z"
            fill="white" />
        <path
            d="M117.603 9.80446C117.495 10.0413 117.309 10.2895 117.046 10.5521L117.709 11.0799C118.078 10.7061 118.338 10.3409 118.492 9.98423C118.646 9.62755 118.724 9.24233 118.724 8.82288V7.66724H116.892V9.4649H117.723C117.698 9.58189 117.657 9.69603 117.606 9.80731L117.603 9.80446Z"
            fill="white" />
        <path d="M125.392 14.1102H121.825V7.66431H120.07V15.5826H125.392V14.1102Z" fill="white" />
        <path d="M128.227 7.66431H126.472V15.5797H128.227V7.66431Z" fill="white" />
        <path
            d="M133.434 15.5826H134.446L136.47 11.1883V15.5826H138.056V7.66431H136.527L133.963 13.4482L131.385 7.66431H129.856V15.5826H131.442V11.2425L133.434 15.5826Z"
            fill="white" />
        <path
            d="M144.995 12.7206L141.003 7.66431H139.699V15.5826H141.34V10.512L145.333 15.5826H146.639V7.66431H144.995V12.7206Z"
            fill="white" />
        <path d="M150.003 7.66431H148.248V15.5797H150.003V7.66431Z" fill="white" />
        <path
            d="M48.6138 25.9805H49.537C49.7856 25.9805 50.0029 26.0148 50.1944 26.0861C50.3858 26.1575 50.5259 26.2973 50.6174 26.5084L51.8435 29.0565H53.7784L52.598 26.6768C52.4408 26.3543 52.2351 26.1089 51.9778 25.9349C51.8692 25.8636 51.7549 25.8093 51.6377 25.7665C51.7549 25.7294 51.8692 25.6866 51.9778 25.6381C52.3894 25.447 52.7038 25.173 52.9239 24.8192C53.1411 24.4625 53.2497 24.0402 53.2497 23.5437C53.2497 22.7875 53.0067 22.1969 52.5237 21.7746C52.0407 21.3523 51.3519 21.1411 50.4602 21.1411H46.8618V29.0565H48.6167V25.9805H48.6138ZM48.6138 22.4993H50.1543C50.6116 22.4993 50.9603 22.5878 51.2004 22.7676C51.4405 22.9473 51.5605 23.2213 51.5605 23.5865C51.5605 23.9518 51.4405 24.2314 51.2004 24.4169C50.9603 24.6052 50.6116 24.6965 50.1543 24.6965H48.6138V22.4965V22.4993Z"
            fill="white" />
        <path d="M56.5794 21.1411H54.8245V29.0565H56.5794V21.1411Z" fill="white" />
        <path
            d="M61.544 26.8394L59.1088 21.1411H57.2196L60.7951 29.0565H62.2356L65.8026 21.1411H63.9791L61.544 26.8394Z"
            fill="white" />
        <path
            d="M73.811 25.0816C73.811 24.2655 73.651 23.5521 73.328 22.9415C73.005 22.3309 72.5535 21.8601 71.9733 21.5262C71.3931 21.1924 70.7014 21.0269 69.8983 21.0269C69.0951 21.0269 68.3949 21.1924 67.8175 21.5262C67.2402 21.8601 66.7943 22.3309 66.4799 22.9415C66.1655 23.5521 66.0083 24.2684 66.0083 25.093C66.0083 25.9176 66.1655 26.6253 66.4799 27.2388C66.7943 27.8523 67.2431 28.3288 67.8233 28.6655C68.4035 29.0022 69.0951 29.1706 69.8983 29.1706C70.7014 29.1706 71.393 29.0022 71.979 28.6655C72.5649 28.3288 73.0165 27.8523 73.3337 27.2388C73.651 26.6253 73.811 25.9062 73.811 25.0816ZM71.4359 27.0077C71.0844 27.4671 70.5699 27.6982 69.8954 27.6982C69.2209 27.6982 68.7007 27.4671 68.3549 27.0077C68.009 26.5483 67.8375 25.9091 67.8375 25.093C67.8375 24.2769 68.009 23.632 68.3549 23.1783C68.7007 22.7247 69.2123 22.4992 69.8954 22.4992C70.5785 22.4992 71.0929 22.7247 71.4416 23.1783C71.7903 23.632 71.9647 24.2684 71.9647 25.093C71.9647 25.9176 71.7875 26.5483 71.4359 27.0077Z"
            fill="white" />
        <path
            d="M75.4973 29.4816C75.3544 29.6757 75.1143 29.7727 74.7771 29.7727C74.6856 29.7727 74.5741 29.767 74.4341 29.7556C74.294 29.7441 74.154 29.7242 74.0111 29.6928V31.051C74.2054 31.0881 74.3969 31.1138 74.5856 31.1309C74.7742 31.1452 74.9343 31.1537 75.0686 31.1537C75.6459 31.1537 76.109 31.0596 76.4576 30.8684C76.8063 30.6772 77.0636 30.3862 77.2293 29.9981C77.3951 29.61 77.478 29.1221 77.478 28.5371V21.1382H75.7117V28.5486C75.7117 28.9766 75.6402 29.2847 75.4973 29.4816Z"
            fill="white" />
        <path d="M79.0843 21.1411V29.0565H84.4061V27.5842H80.8391V21.1411H79.0843Z" fill="white" />
        <path
            d="M84.4289 29.0565H86.1838L86.9298 27.3388H90.6797L91.4256 29.0565H93.192L89.525 21.1411H88.0731L84.4289 29.0565ZM88.8247 22.9702L90.1166 25.9805H87.5186L88.7819 22.9702H88.8276H88.8247Z"
            fill="white" />
        <path
            d="M99.1854 26.1946L95.1926 21.1411H93.8865V29.0565H95.5299V23.9888L99.5227 29.0565H100.826V21.1411H99.1854V26.1946Z"
            fill="white" />
        <path d="M101.761 22.565H104.267V29.0565H106.033V22.565H108.554V21.1411H101.761V22.565Z"
            fill="white" />
        <path d="M111.252 21.1411H109.498V29.0565H111.252V21.1411Z" fill="white" />
        <path
            d="M117.98 25.9349C117.872 25.8636 117.758 25.8093 117.64 25.7665C117.758 25.7294 117.872 25.6866 117.98 25.6381C118.392 25.447 118.706 25.173 118.926 24.8192C119.144 24.4625 119.252 24.0402 119.252 23.5437C119.252 22.7875 119.009 22.1969 118.526 21.7746C118.043 21.3523 117.355 21.1411 116.463 21.1411H112.864V29.0565H114.619V25.9805H115.542C115.791 25.9805 116.008 26.0148 116.2 26.0861C116.391 26.1575 116.531 26.2973 116.623 26.5084L117.849 29.0565H119.784L118.604 26.6768C118.446 26.3543 118.241 26.1089 117.983 25.9349H117.98ZM116.157 24.6993H114.616V22.4993H116.157C116.614 22.4993 116.963 22.5878 117.203 22.7676C117.443 22.9473 117.563 23.2213 117.563 23.5865C117.563 23.9518 117.443 24.2314 117.203 24.4169C116.963 24.6052 116.614 24.6965 116.157 24.6965V24.6993Z"
            fill="white" />
        <path d="M122.579 21.1411H120.824V29.0565H122.579V21.1411Z" fill="white" />
        <path
            d="M128.112 24.5651L126.798 24.3055C126.4 24.2313 126.123 24.1228 125.966 23.9802C125.809 23.8375 125.729 23.6549 125.729 23.4294C125.729 23.1213 125.857 22.8873 126.118 22.7218C126.375 22.5563 126.749 22.4735 127.238 22.4735C127.727 22.4735 128.124 22.5335 128.504 22.6533C128.881 22.7732 129.23 22.9615 129.544 23.2154L130.05 21.9143C129.736 21.6375 129.333 21.4206 128.847 21.2637C128.358 21.1068 127.835 21.0269 127.272 21.0269C126.621 21.0269 126.049 21.1296 125.557 21.335C125.066 21.5405 124.683 21.8344 124.411 22.211C124.14 22.5877 124 23.03 124 23.5293C124 24.1285 124.183 24.6108 124.546 24.9732C124.909 25.3355 125.454 25.5924 126.183 25.7436L127.489 26.0118C127.91 26.0946 128.195 26.1944 128.344 26.3143C128.495 26.4341 128.57 26.611 128.57 26.8422C128.57 27.1047 128.455 27.3158 128.227 27.4756C127.998 27.6354 127.615 27.7182 127.075 27.7182C126.729 27.7182 126.398 27.6868 126.08 27.624C125.76 27.5612 125.463 27.4699 125.18 27.3558C124.9 27.2388 124.631 27.099 124.377 26.9335L123.86 28.2917C124.248 28.5685 124.723 28.7854 125.277 28.9366C125.832 29.0878 126.432 29.1677 127.078 29.1677C127.724 29.1677 128.298 29.0678 128.781 28.8652C129.264 28.6627 129.642 28.3773 129.913 28.0064C130.185 27.6354 130.319 27.2074 130.319 26.7195C130.319 26.1345 130.136 25.6665 129.773 25.3156C129.41 24.9646 128.861 24.7135 128.127 24.5623L128.112 24.5651Z"
            fill="white" />
        <path
            d="M136.976 24.3284H133.343V21.1411H131.588V29.0565H133.343V25.7665H136.976V29.0565H138.742V21.1411H136.976V24.3284Z"
            fill="white" />
        <path
            d="M50.9891 40.3961L48.4139 34.615H46.882V42.5304H48.4682V38.1932L50.4603 42.5304H51.4721L53.4957 38.139V42.5304H55.0819V34.615H53.5528L50.9891 40.3961Z"
            fill="white" />
        <path
            d="M59.4461 34.615L55.802 42.5304H57.5569L58.3029 40.8127H62.0527L62.7987 42.5304H64.565L60.898 34.615H59.4461ZM60.1549 36.444H60.2006L61.4925 39.4544H58.8945L60.1578 36.444H60.1549Z"
            fill="white" />
        <path
            d="M70.3784 39.4088C70.2698 39.3374 70.1555 39.2832 70.0383 39.2404C70.1555 39.2033 70.2698 39.1605 70.3784 39.112C70.79 38.9208 71.1044 38.6469 71.3245 38.2931C71.5417 37.9364 71.6503 37.5141 71.6503 37.0176C71.6503 36.2614 71.4073 35.6708 70.9243 35.2485C70.4413 34.8261 69.7525 34.615 68.8608 34.615H65.2624V42.5304H67.0173V39.4544H67.9404C68.1891 39.4544 68.4063 39.4887 68.5978 39.56C68.7893 39.6313 68.9293 39.7712 69.0208 39.9823L70.2469 42.5304H72.1819L71.0015 40.1507C70.8443 39.8282 70.6385 39.5828 70.3813 39.4088H70.3784ZM68.5578 38.1732H67.0173V35.9732H68.5578C69.0151 35.9732 69.3638 36.0617 69.6039 36.2415C69.8439 36.4212 69.964 36.6951 69.964 37.0604C69.964 37.4256 69.8439 37.7053 69.6039 37.8907C69.3638 38.0791 69.0151 38.1704 68.5578 38.1704V38.1732Z"
            fill="white" />
        <path
            d="M83.3914 34.6149L80.0217 41.9368L76.6834 38.39L80.3333 34.6121H78.2525L75.0029 38.059H74.98V34.6121H73.2251V42.5275H74.98V38.9122H75.0029L78.4212 42.5275H81.5022L82.2482 40.8097H85.9981L86.744 42.5275H88.5103L84.8434 34.6121H83.3914V34.6149ZM84.1003 36.444H84.146L85.4379 39.4543H82.8398L84.1031 36.444H84.1003Z"
            fill="white" />
        <path
            d="M94.7182 35.8962V34.615H88.8019V36.0645H92.6518L88.8019 41.2407V42.5304H94.8668V41.0837H90.854L94.7182 35.8962Z"
            fill="white" />
        <path d="M97.7678 34.615H96.0129V42.5304H97.7678V34.615Z" fill="white" />
        <path
            d="M20.5213 8.97121C23.0027 8.97121 25.0143 6.96293 25.0143 4.4856C25.0143 2.00827 23.0027 0 20.5213 0C18.0399 0 16.0284 2.00827 16.0284 4.4856C16.0284 6.96293 18.0399 8.97121 20.5213 8.97121Z"
            fill="white" />
        <path
            d="M41.0426 7.87842L23.1079 9.68179V39.2805L24.9628 40.9869V11.3568L41.0426 9.73886V7.87842Z"
            fill="white" />
        <path
            d="M41.0426 10.9258L26.0832 12.4295V42.0197L27.115 42.967V13.3598L41.0426 11.9587V10.9258Z"
            fill="white" />
        <path
            d="M41.0427 40.8526L30.0932 41.9541V16.1048L41.0427 15.0062V13.1458L28.2383 14.4327V44L41.0427 42.7131V40.8526Z"
            fill="white" />
        <path d="M0 7.87842L17.9347 9.68179V39.2805L16.0827 40.9869V11.3568L0 9.73886V7.87842Z"
            fill="white" />
        <path d="M0 10.9258L14.9594 12.4295V42.0197L13.9276 42.967V13.3598L0 11.9587V10.9258Z"
            fill="white" />
        <path
            d="M0 40.8526L10.9523 41.9541V16.1048L0 15.0062V13.1458L12.8044 14.4327V44L0 42.7131V40.8526Z"
            fill="white" />
    </g>
    <defs>
        <clipPath id="clip0_3046_2846">
            <rect width="150" height="44" fill="white" />
        </clipPath>
    </defs>
</svg>