<svg xmlns="http://www.w3.org/2000/svg" width="90" height="90" viewBox="0 0 90 90" fill="none">
    <path
        d="M44.6719 45C44.6719 37.6363 50.6413 31.6667 58.005 31.6667C65.3686 31.6667 71.3382 37.6363 71.3382 45C71.3382 52.3638 65.3686 58.3333 58.005 58.3333C50.6413 58.3333 44.6719 52.3638 44.6719 45Z"
        fill="#1ABCFE" />
    <path
        d="M18 71.6667C18 64.303 23.9695 58.3334 31.3332 58.3334H44.6663V71.6667C44.6663 79.0305 38.6969 85 31.3332 85C23.9695 85 18 79.0305 18 71.6667Z"
        fill="#0ACF83" />
    <path
        d="M44.6719 5V31.6665H58.005C65.3688 31.6665 71.3382 25.6971 71.3382 18.3333C71.3382 10.9695 65.3688 5 58.005 5H44.6719Z"
        fill="#FF7262" />
    <path
        d="M18 18.3333C18 25.6971 23.9695 31.6665 31.3332 31.6665H44.6663V5H31.3332C23.9695 5 18 10.9695 18 18.3333Z"
        fill="#F24E1E" />
    <path
        d="M18 44.9998C18 52.3636 23.9695 58.3331 31.3332 58.3331H44.6663V31.6664H31.3332C23.9695 31.6664 18 37.6361 18 44.9998Z"
        fill="#A259FF" />
</svg>