<svg xmlns="http://www.w3.org/2000/svg" width="88" height="88" viewBox="0 0 88 88" fill="none">
    <path
        d="M75.1111 4.88889C79.5294 4.88889 83.1111 8.47061 83.1111 12.8889V75.1111C83.1111 79.5294 79.5294 83.1111 75.1111 83.1111H12.8889C8.47061 83.1111 4.88889 79.5294 4.88889 75.1111V12.8889C4.88889 8.47061 8.47061 4.88889 12.8889 4.88889H75.1111Z"
        fill="#4353FF" />
    <path
        d="M57.8647 37.6599C57.8647 37.6599 53.8949 50.0972 53.6016 51.1532C53.4842 50.1168 50.59 27.7648 50.59 27.7648C43.8238 27.7648 40.2256 32.5755 38.3091 37.6599C38.3091 37.6599 33.4789 50.1364 33.0878 51.1728C33.0682 50.195 32.3447 37.7772 32.3447 37.7772C31.934 31.539 26.2433 27.7648 21.6282 27.7648L27.182 61.6155C34.2611 61.5959 38.0745 56.8048 40.0691 51.7008C40.0691 51.7008 44.3127 40.691 44.4887 40.2021C44.5278 40.6715 47.5393 61.6155 47.5393 61.6155C54.638 61.6155 58.4709 57.1372 60.5242 52.2288L70.478 27.7648C63.4576 27.7648 59.7616 32.5559 57.8647 37.6599Z"
        fill="white" />
</svg>