<svg width="230" height="165" viewBox="0 0 230 165" fill="none" xmlns="http://www.w3.org/2000/svg">
<g id="Isolation_Mode" clip-path="url(#clip0_29223_195)">
<path id="Vector" d="M228.994 128.862C225.238 126.495 221.564 124.005 217.624 121.924C215.468 120.781 211.364 118.067 209.024 120.108C207.895 121.087 208.305 125.332 210.317 124.332C211.979 123.515 217.377 127.495 218.568 128.209C219.245 128.617 219.902 129.045 220.579 129.474C220.415 129.351 220.21 129.27 219.984 129.249C201.101 127.311 181.705 129.045 162.761 129.535C144.802 129.984 126.617 133.351 108.74 132.943C100.612 132.759 92.5665 131.657 84.5208 130.555C86.8606 129.433 89.0773 128.066 91.0887 126.556C105.435 115.68 112.496 96.2127 119.7 80.3167C121.014 77.3987 140.697 21.1607 159.58 48.3207C175.692 71.5015 164.465 112.496 191.824 127.801C194.246 129.168 194.964 123.189 192.748 121.944C174.85 111.843 176.513 85.9691 172.018 68.4202C169.308 57.8093 165.121 41.8521 154.346 36.3017C141.99 29.9148 132.384 44.4232 127.417 53.5649C126.104 55.9932 124.872 58.4623 123.661 60.9517C108.494 50.0551 84.9929 46.4229 69.9072 35.2202C69.1272 26.6907 68.4705 17.2837 68.6552 16.9164C70.4203 21.8953 72.7396 26.6499 76.8035 30.18C78.5276 31.6696 79.4101 27.813 78.466 26.7111C74.4637 22.0586 72.1239 16.8552 70.605 10.9579C70.1124 9.0398 68.2447 8.30519 67.3416 10.3866C65.7817 13.978 63.4829 17.3449 61.5126 20.7118C59.9732 23.3441 57.3666 26.8335 57.4897 30.0168C57.5308 31.0167 58.557 33.2001 59.809 31.9349C61.9846 29.7719 64.386 23.1197 65.9664 20.4465C66.7053 35.5059 73.068 103.457 71.7339 127.78C62.1078 126.944 58.3107 119.291 55.3552 111.231C50.8192 98.8246 46.9605 86.2751 41.7062 74.1134C37.1087 63.482 22.0025 27.16 5.48009 42.1581C4.51543 43.0356 4.98749 46.8514 6.60895 45.8516C27.1747 32.9144 43.6561 90.0094 48.0689 102.722C50.9423 110.986 53.0769 121.74 59.6038 128.168C59.0907 128.168 58.5775 128.107 58.0644 128.107C38.9149 127.964 19.7653 129.821 0.615728 130.311C-0.287359 130.331 -0.24631 132.31 0.656778 132.331C18.9443 132.555 37.2523 131.637 55.5399 132.269C60.9379 132.453 66.2948 132.984 71.6518 133.616C71.5902 142.37 71.6107 151.145 71.9597 159.878C72.1033 163.245 75.4283 163.102 75.5515 159.797C75.8799 151.308 76.0646 142.738 76.1672 134.167C87.0453 135.575 97.8618 137.269 108.802 137.534C125.837 137.942 143.016 134.82 160.113 134.637C180.022 134.412 200.178 134.473 220.046 133.351C221.667 133.269 221.749 130.351 220.538 129.494C221.749 130.249 222.96 131.004 224.15 131.78C220.066 135.289 215.304 137.963 211.671 142.003C210.378 143.452 211.384 148.329 213.478 146.37C218.404 141.799 224.581 138.718 229.056 133.657C230.041 132.555 230.452 129.821 228.933 128.862H228.994ZM70.3382 39.7095C84.6645 50.8101 106.277 56.1768 121.671 65.1145C120.808 66.9918 119.987 68.8895 119.146 70.7669C103.321 64.8696 84.9929 54.5036 71.3234 44.8313C71.1592 44.7293 71.036 44.7089 70.9129 44.7293C70.7282 43.3009 70.5434 41.5664 70.3382 39.7095ZM72.5343 57.4624C72.1033 53.973 71.6518 50.4837 71.2002 46.9943C83.6382 56.8298 100.9 71.5627 117.155 75.2765C115.226 79.6841 113.296 84.1121 111.285 88.479C105.333 83.1123 99.2575 77.5415 92.9564 72.6238C86.2243 67.3591 78.1992 64.1962 72.6164 57.5236C72.5959 57.5032 72.5754 57.4828 72.5343 57.4624ZM74.71 77.011C74.2584 71.93 73.7043 66.8694 73.0885 61.8088C78.1786 67.3591 84.7671 70.9301 90.7398 75.5622C97.123 80.5207 102.48 87.9892 109.828 91.601C108.268 94.8863 106.646 98.1512 104.902 101.334C104.902 101.334 104.902 101.314 104.881 101.294C98.3955 96.7228 92.3612 92.152 86.5117 86.7853C82.6941 83.2959 78.9175 79.8882 74.71 76.9702V77.011ZM75.6131 90.091C75.4899 87.1934 75.3052 84.2754 75.0999 81.3778C84.2129 89.3768 92.3202 100.008 103.383 104.089C101.905 106.62 100.345 109.109 98.6623 111.537C98.6213 111.333 98.5597 111.15 98.4571 111.007C92.5254 103.763 83.2688 100.641 75.7772 95.2128C75.7157 93.4987 75.6746 91.7847 75.6131 90.0706V90.091ZM76.1877 112.741C76.1262 108.109 76.0235 103.477 75.9004 98.845C82.6941 104.069 90.7603 108.007 97.4514 113.109C97.4514 113.109 97.4514 113.109 97.4719 113.109C95.5426 115.639 93.2643 118.128 90.7192 120.353C85.6496 117.965 80.6621 115.904 76.1877 112.721V112.741ZM76.2288 116.72C79.5538 119.312 83.2893 121.556 87.1274 123.128C83.8024 125.372 80.149 127.046 76.2904 127.617C76.2904 123.985 76.2493 120.353 76.2288 116.72Z" fill="#E3EEFF"/>
<path id="Vector_2" d="M60.7532 149.859C59.4396 145.962 55.5399 142.86 51.7428 146.043C50.614 146.982 50.9834 150.512 52.9127 149.9C55.2936 149.145 57.0998 149.227 58.0234 151.838C58.8444 154.144 58.3928 157.123 56.6072 158.878C54.2468 161.184 48.8078 161.143 46.899 158.266C44.5386 154.716 48.3768 149.247 51.0655 147.043C51.8249 146.431 51.2913 144.207 50.2035 144.982C45.7085 148.206 42.1578 154.695 44.3129 160.205C46.3243 165.388 54.0826 166.49 58.0644 162.919C61.5536 159.797 62.1694 154.083 60.7532 149.859Z" fill="#E3EEFF"/>
<path id="Vector_3" d="M155.598 17.8958C155.844 16.7531 155.393 15.2839 154.346 15.2227C154.059 14.6105 153.751 13.9983 153.463 13.4066C151.103 8.448 148.25 3.79552 143.919 0.306153C143.263 -0.224394 142.339 6.84243e-05 141.949 0.734672C139.794 4.87702 138.172 9.30504 136.654 13.7127C136.264 14.8758 133.636 28.568 133.246 29.9964C133.246 32.0981 135.976 31.2819 136.407 30.7514C136.695 30.3841 139.158 20.9363 139.404 20.5485C144.309 19.161 147.039 19.2222 152.15 19.2018C153.648 22.8748 154.736 27.4865 157.281 30.3637C158.205 31.4043 159.231 30.2616 159.128 29.1393C158.8 25.4255 157.26 21.5484 155.598 17.9162V17.8958ZM143.57 5.79527C146.362 8.48882 148.476 11.7741 150.261 15.2227C146.588 15.3043 142.934 15.6308 139.404 16.4674C140.902 13.0189 142.031 9.1622 143.57 5.81568V5.79527Z" fill="#E3EEFF"/>
</g>
<defs>
<clipPath id="clip0_29223_195">
<rect width="230" height="165" fill="white"/>
</clipPath>
</defs>
</svg>
