<svg xmlns="http://www.w3.org/2000/svg" width="160" height="160" viewBox="0 0 160 160" fill="none">
  <path d="M140 80C140 46.867 113.139 20 80 20C46.8605 20 20 46.867 20 80C20 113.139 46.8605 140 80 140C113.139 140 140 113.139 140 80Z" stroke="white" stroke-width="6" stroke-linecap="round" stroke-linejoin="round"/>
  <path fill-rule="evenodd" clip-rule="evenodd" d="M96.8787 87.626C91.534 92.5034 84.866 96.9014 77.5166 99.8854C71.27 102.369 66.029 99.2694 65.2636 93.0554C64.3295 83.8834 64.349 75.1134 65.2636 66.9274C66.1003 60.4604 71.8666 57.7166 77.5166 60.1166C84.7486 63.107 91.2353 67.1674 96.8787 72.3827C101.698 76.7867 101.815 83.0467 96.8787 87.626Z" stroke="white" stroke-width="6" stroke-linecap="round" stroke-linejoin="round"/>
</svg>